<mxfile host="app.diagrams.net" modified="2024-08-14T03:41:04.474Z" agent="Mozilla/5.0 (Macintosh; Intel Mac OS X 10_15_7) AppleWebKit/537.36 (KHTML, like Gecko) Chrome/127.0.0.0 Safari/537.36" version="24.4.10" etag="FBEo_V4w4NpO5NXibM6K" type="github">
  <diagram name="第 1 页" id="OoQbPG2aDJ_FVJlw0ZMr">
    <mxGraphModel>
      <root>
        <mxCell id="0" />
        <mxCell id="1" parent="0" />
      </root>
    </mxGraphModel>
  </diagram>
</mxfile>
